HIERARCHY
ROOT Hips
{
	OFFSET -3.958830 18.904000 13.208200
	CHANNELS 6 Xposition Yposition Zposition Zrotation Yrotation Xrotation 
	JOINT LHipJoint
	{
		OFFSET 0.000000 0.000000 0.000000
		CHANNELS 3 Zrotation Yrotation Xrotation
		JOINT LeftUpLeg
		{
			OFFSET 1.800000 -1.400000 0.085000
			CHANNELS 3 Zrotation Yrotation Xrotation
			JOINT LeftLeg
			{
				OFFSET 2.215000 -6.000000 0.000000
				CHANNELS 3 Zrotation Yrotation Xrotation
				JOINT LeftFoot
				{
					OFFSET 2.500000 -6.900000 0.000000
					CHANNELS 3 Zrotation Yrotation Xrotation
					JOINT LeftToeBase
					{
						OFFSET 0.200000 -0.500000 1.950000
						CHANNELS 3 Zrotation Yrotation Xrotation
						End Site
						{
							OFFSET 0.000000 0.000000 0.000000
						}
					}
				}
			}
		}
	}
	JOINT RHipJoint
	{
		OFFSET 0.000000 0.000000 0.000000
		CHANNELS 3 Zrotation Yrotation Xrotation
		JOINT RightUpLeg
		{
			OFFSET -1.800000 -1.400000 0.085000
			CHANNELS 3 Zrotation Yrotation Xrotation
			JOINT RightLeg
			{
				OFFSET -2.215000 -6.000000 0.000000
				CHANNELS 3 Zrotation Yrotation Xrotation
				JOINT RightFoot
				{
					OFFSET -2.500000 -6.900000 0.000000
					CHANNELS 3 Zrotation Yrotation Xrotation
					JOINT RightToeBase
					{
						OFFSET -0.200000 -0.500000 1.950000
						CHANNELS 3 Zrotation Yrotation Xrotation
						End Site
						{
							OFFSET 0.000000 0.000000 0.000000
						}
					}
				}
			}
		}
	}
	JOINT LowerBack
	{
		OFFSET 0.000000 0.000000 0.000000
		CHANNELS 3 Zrotation Yrotation Xrotation
		JOINT Spine
		{
			OFFSET -0.087000 1.940000 -0.288900
			CHANNELS 3 Zrotation Yrotation Xrotation
			JOINT Spine1
			{
				OFFSET 0.000000 1.950000 0.060000
				CHANNELS 3 Zrotation Yrotation Xrotation
				JOINT Neck
				{
					OFFSET 0.000000 0.000000 0.000000
					CHANNELS 3 Zrotation Yrotation Xrotation
					JOINT Neck1
					{
						OFFSET 0.000000 1.600000 0.340000
						CHANNELS 3 Zrotation Yrotation Xrotation
						JOINT Head
						{
							OFFSET 0.000000 1.667000 -0.240000
							CHANNELS 3 Zrotation Yrotation Xrotation
							End Site
							{
								OFFSET 0.000000 0.000000 0.000000
							}
						}
					}
				}
				JOINT LeftShoulder
				{
					OFFSET 0.000000 0.000000 0.000000
					CHANNELS 3 Zrotation Yrotation Xrotation
					JOINT LeftArm
					{
						OFFSET 2.700000 1.550000 -0.730000
						CHANNELS 3 Zrotation Yrotation Xrotation
						JOINT LeftForeArm
						{
							OFFSET 5.450000 0.000000 0.000000
							CHANNELS 3 Zrotation Yrotation Xrotation
							JOINT LeftHand
							{
								OFFSET 3.450000 0.000000 0.000000
								CHANNELS 3 Zrotation Yrotation Xrotation
								JOINT LeftHandIndex1
								{
									OFFSET 0.750000 0.000000 0.000000
									CHANNELS 3 Zrotation Yrotation Xrotation
									End Site
									{
										OFFSET 0.000000 0.000000 0.000000
									}
								}
							}
						}
					}
				}
				JOINT RightShoulder
				{
					OFFSET 0.000000 0.000000 0.000000
					CHANNELS 3 Zrotation Yrotation Xrotation
					JOINT RightArm
					{
						OFFSET -2.700000 1.550000 -0.730000
						CHANNELS 3 Zrotation Yrotation Xrotation
						JOINT RightForeArm
						{
							OFFSET -5.450000 0.000000 0.000000
							CHANNELS 3 Zrotation Yrotation Xrotation
							JOINT RightHand
							{
								OFFSET -3.450000 0.000000 0.000000
								CHANNELS 3 Zrotation Yrotation Xrotation
								JOINT RightHandIndex1
								{
									OFFSET -0.750000 0.000000 0.000000
									CHANNELS 3 Zrotation Yrotation Xrotation
									End Site
									{
										OFFSET 0.000000 0.000000 0.000000
									}
								}
							}
						}
					}
				}
			}
		}
	}
}
MOTION
Frames: 7
Frame Time: 0.016667
-0.173770 15.623370 -1.015830 -1.948270 -5.348082 4.135389 -15.666590 11.617832 3.874727 -7.224290 -9.687806 -10.217689 -24.189761 18.544035 42.160445 1.311529 10.690581 1.157372 0.752400 0.244800 0.794870 18.276697 -7.319472 5.018469 -6.183670 8.780336 -50.322589 42.228176 -20.481897 32.093660 -1.598615 -8.633059 1.559552 0.079950 0.053430 0.501350 -2.963209 -4.201250 -9.415363 8.122498 -5.455043 24.479576 2.792776 -5.116910 8.736039 1.574347 1.154755 -8.138536 -1.079613 3.408305 37.967846 -14.399160 13.059610 -5.419900 -7.424684 -4.294022 -0.842755 11.882868 0.618962 -0.872920 27.079316 -70.800075 -14.940418 -3.728892 3.533442 0.444720 0.295470 0.028550 0.255050 4.813335 1.808108 6.289026 16.077462 -14.360321 -6.684393 33.221633 65.652573 16.847010 1.728027 -2.499852 0.025300 -0.186690 -0.321780 -0.381530 
-0.170970 15.598530 -0.973020 -1.068989 -5.897240 4.278077 -15.685944 11.662453 3.892343 -8.256329 -9.318542 -9.847246 -24.028588 18.439220 41.876140 1.317345 10.613513 1.191279 0.705340 0.196010 0.744170 18.258949 -7.310034 5.006354 -6.025865 9.037350 -50.038282 41.413778 -20.186595 32.411307 -1.559692 -8.551350 1.606104 0.044690 0.073350 0.474220 -2.912422 -4.284607 -9.418014 7.584189 -5.187426 23.941573 3.047419 -5.035921 9.234307 1.423909 0.277387 -8.809056 -2.856807 3.952054 38.593866 -13.942190 12.649920 -4.884390 -7.516624 -4.686415 -0.246387 12.494981 3.248846 -0.406281 23.377173 -72.547992 -13.375193 -3.736552 3.570015 0.455430 0.284480 0.011560 0.247250 5.145705 2.968157 7.016599 13.603645 -16.954579 -6.186442 39.437168 69.303751 21.431411 1.777864 -2.478021 0.010200 -0.161560 -0.288800 -0.372210 
-0.170170 15.604210 -0.883440 -0.592957 -6.726806 3.970534 -15.647434 11.770200 3.844754 -8.203768 -8.222358 -8.458743 -24.597066 18.549511 40.396861 1.305218 10.470947 1.248696 0.714700 0.186950 0.750450 18.276819 -7.430828 4.954724 -4.781213 9.917088 -48.799183 38.794198 -19.472868 33.623430 -1.524568 -8.346770 1.669650 0.032270 0.049160 0.447480 -2.991933 -4.202821 -9.362105 8.343227 -5.260680 23.865438 2.397645 -4.865846 9.775772 1.497963 -0.911099 -9.674754 -5.120359 4.671953 38.887449 -13.413530 12.083390 -5.554730 -8.283356 -5.055631 0.613176 12.983794 6.757621 0.366765 10.753640 -75.928241 -6.251047 -3.701449 3.699248 0.511760 0.227000 0.034970 0.257100 5.659368 4.261034 7.855702 10.988207 -19.246985 -5.322640 50.513823 72.472703 29.199678 1.897179 -2.394018 -0.003670 -0.139800 -0.300440 -0.375450 
-0.159820 15.681710 -0.781890 -0.766129 -7.400161 3.770716 -15.578648 11.900886 3.762937 -7.399058 -6.921905 -6.999883 -25.353932 18.436651 37.991758 1.254408 10.235324 1.353449 0.655710 0.128680 0.704830 18.318517 -7.603890 4.895634 -2.817443 10.889739 -47.590551 34.636298 -18.434661 35.432277 -1.419728 -8.079089 1.783790 0.003010 0.089910 0.411610 -3.143451 -4.049664 -9.263185 10.132587 -5.937277 24.314757 1.037045 -4.895445 9.624185 2.007802 -1.834327 -10.294843 -6.459075 5.341497 37.588995 -13.895280 12.417780 -5.524080 -9.022929 -4.634035 1.575840 9.561149 9.416219 0.250619 -5.154001 -79.347423 4.185781 -3.725120 3.720255 0.524430 0.235070 0.013520 0.260350 5.312423 4.496392 8.074208 11.003807 -18.636541 -5.016526 60.507449 72.390677 35.109844 1.994396 -2.229549 -0.047600 -0.089290 -0.275680 -0.371690 
-0.142090 15.857060 -0.662860 -1.935738 -8.989408 2.252055 -15.458557 12.184480 3.600954 -5.418252 -4.862422 -3.803454 -25.030964 17.842635 34.815127 1.246601 9.779815 1.530203 0.622750 0.069430 0.684440 18.373296 -7.942243 4.785891 0.053970 11.817262 -43.959502 30.177757 -17.064315 36.927491 -1.315865 -7.688742 1.922156 -0.068590 0.075820 0.405430 -3.373218 -3.824848 -9.106469 13.603829 -6.999277 26.851448 -1.406794 -4.522732 8.468786 2.815580 -3.283774 -11.333725 -8.941291 5.706048 36.760844 -13.660710 12.001470 -4.052110 -10.891511 -5.063562 3.011016 4.817535 11.539109 -0.403634 -35.322430 -80.212039 26.726357 -3.708638 3.749089 0.522280 0.196430 0.017610 0.264850 5.460806 6.220441 8.574941 13.444876 -18.084219 -6.398879 63.512639 69.358847 34.791406 2.058481 -2.204900 -0.021210 -0.125410 -0.289240 -0.347880 
-0.131270 16.039690 -0.523810 -2.628393 -10.098847 1.940266 -15.373205 12.386198 3.470346 -3.739143 -3.418376 -1.591444 -24.298587 17.333273 32.762938 1.254078 9.439393 1.656880 0.631580 0.064660 0.656000 18.419386 -8.177236 4.705960 2.071364 12.233563 -41.472154 26.163532 -15.836791 38.194034 -1.233605 -7.395030 2.020258 -0.105610 0.067380 0.428760 -3.544499 -3.670473 -8.949748 15.948509 -7.891414 26.963563 -3.433328 -4.546653 7.253468 3.421194 -4.573583 -12.016524 -11.247556 6.805739 36.161983 -12.814020 11.990150 -1.802330 -12.351848 -5.161570 4.145365 -1.710843 12.827768 -1.649453 -58.554760 -74.796526 40.551745 -3.688359 3.782923 0.502900 0.176890 0.021220 0.299640 5.705481 7.408247 8.652541 17.189454 -16.097183 -7.802261 62.805777 63.316342 30.663215 2.028226 -2.302264 0.025910 -0.194230 -0.322700 -0.311030 
-0.142810 16.258150 -0.391920 -2.608779 -11.201632 1.586616 -15.358991 12.692785 3.396986 -2.994101 -2.255658 0.027277 -22.294255 16.540023 31.737396 1.243503 9.085409 1.769814 0.576460 0.025840 0.576890 18.392274 -8.355322 4.588724 3.800390 12.178833 -38.844388 21.208725 -14.060383 39.415665 -1.074279 -6.952639 2.182010 -0.154210 0.092050 0.412300 -3.495054 -3.842010 -8.829466 15.958981 -7.779753 27.336755 -3.832872 -4.186887 5.278975 3.659253 -5.643171 -12.318007 -13.586154 8.155531 36.367107 -10.781950 11.427360 0.518730 -13.822867 -5.122091 4.500215 -9.608675 12.142329 -3.736932 -62.212875 -65.657993 36.541646 -3.614672 3.884691 0.449420 0.174570 -0.010500 0.288010 6.846791 8.422244 8.641634 22.598061 -14.146494 -9.593661 55.565768 57.357286 23.447046 2.004012 -2.262941 0.058830 -0.211450 -0.290330 -0.269240 
